<svg width="32" height="33" viewBox="0 0 32 33" fill="none" xmlns="http://www.w3.org/2000/svg">
<path d="M16.0001 10.5001C14.8134 10.5001 13.6533 10.852 12.6666 11.5112C11.6799 12.1705 10.9109 13.1076 10.4568 14.204C10.0027 15.3003 9.88383 16.5067 10.1153 17.6706C10.3469 18.8345 10.9183 19.9036 11.7574 20.7427C12.5965 21.5818 13.6656 22.1533 14.8295 22.3848C15.9934 22.6163 17.1998 22.4975 18.2962 22.0433C19.3925 21.5892 20.3296 20.8202 20.9889 19.8335C21.6482 18.8468 22.0001 17.6867 22.0001 16.5001C21.9984 14.9093 21.3657 13.3841 20.2409 12.2592C19.116 11.1344 17.5908 10.5017 16.0001 10.5001ZM16.0001 20.5001C15.2089 20.5001 14.4356 20.2655 13.7778 19.8259C13.12 19.3864 12.6073 18.7617 12.3045 18.0308C12.0018 17.2999 11.9226 16.4956 12.0769 15.7197C12.2313 14.9438 12.6122 14.231 13.1716 13.6716C13.731 13.1122 14.4438 12.7313 15.2197 12.5769C15.9956 12.4226 16.7999 12.5018 17.5308 12.8045C18.2617 13.1073 18.8864 13.62 19.3259 14.2778C19.7655 14.9356 20.0001 15.7089 20.0001 16.5001C20.0001 17.5609 19.5786 18.5783 18.8285 19.3285C18.0783 20.0786 17.0609 20.5001 16.0001 20.5001ZM27.0001 16.7701C27.0051 16.5901 27.0051 16.4101 27.0001 16.2301L28.8651 13.9001C28.9628 13.7777 29.0305 13.6341 29.0627 13.4808C29.0948 13.3276 29.0905 13.1689 29.0501 13.0176C28.7443 11.8683 28.287 10.7649 27.6901 9.73631C27.6119 9.6017 27.5034 9.4872 27.3732 9.40192C27.243 9.31664 27.0947 9.26292 26.9401 9.24506L23.9751 8.91506C23.8517 8.78506 23.7267 8.66006 23.6001 8.54006L23.2501 5.56756C23.2321 5.41282 23.1782 5.26443 23.0926 5.13422C23.0071 5.00401 22.8924 4.89557 22.7576 4.81756C21.7286 4.22174 20.6253 3.76485 19.4763 3.45881C19.3249 3.41855 19.1662 3.41444 19.0129 3.44679C18.8596 3.47914 18.716 3.54705 18.5938 3.64506L16.2701 5.50006C16.0901 5.50006 15.9101 5.50006 15.7301 5.50006L13.4001 3.63881C13.2777 3.54102 13.1341 3.47333 12.9808 3.4412C12.8276 3.40906 12.6689 3.41338 12.5176 3.45381C11.3685 3.76009 10.2651 4.21741 9.23631 4.81381C9.1017 4.89196 8.9872 5.00046 8.90192 5.13067C8.81664 5.26087 8.76292 5.40919 8.74506 5.56381L8.41506 8.53381C8.28506 8.65797 8.16006 8.78297 8.04006 8.90881L5.06756 9.25006C4.91282 9.26806 4.76443 9.32196 4.63422 9.40747C4.50401 9.49298 4.39557 9.60772 4.31756 9.74256C3.72174 10.7715 3.26485 11.8749 2.95881 13.0238C2.91855 13.1752 2.91444 13.334 2.94679 13.4872C2.97914 13.6405 3.04705 13.7841 3.14506 13.9063L5.00006 16.2301C5.00006 16.4101 5.00006 16.5901 5.00006 16.7701L3.13881 19.1001C3.04102 19.2224 2.97333 19.366 2.9412 19.5193C2.90906 19.6726 2.91338 19.8312 2.95381 19.9826C3.25954 21.1318 3.71689 22.2352 4.31381 23.2638C4.39196 23.3984 4.50046 23.5129 4.63067 23.5982C4.76087 23.6835 4.90919 23.7372 5.06381 23.7551L8.02881 24.0851C8.15297 24.2151 8.27797 24.3401 8.40381 24.4601L8.75006 27.4326C8.76806 27.5873 8.82196 27.7357 8.90747 27.8659C8.99298 27.9961 9.10772 28.1045 9.24256 28.1826C10.2715 28.7784 11.3749 29.2353 12.5238 29.5413C12.6752 29.5816 12.834 29.5857 12.9872 29.5533C13.1405 29.521 13.2841 29.4531 13.4063 29.3551L15.7301 27.5001C15.9101 27.5051 16.0901 27.5051 16.2701 27.5001L18.6001 29.3651C18.7224 29.4628 18.866 29.5305 19.0193 29.5627C19.1726 29.5948 19.3312 29.5905 19.4826 29.5501C20.6318 29.2443 21.7352 28.787 22.7638 28.1901C22.8984 28.1119 23.0129 28.0034 23.0982 27.8732C23.1835 27.743 23.2372 27.5947 23.2551 27.4401L23.5851 24.4751C23.7151 24.3517 23.8401 24.2267 23.9601 24.1001L26.9326 23.7501C27.0873 23.7321 27.2357 23.6782 27.3659 23.5926C27.4961 23.5071 27.6045 23.3924 27.6826 23.2576C28.2784 22.2286 28.7353 21.1253 29.0413 19.9763C29.0816 19.8249 29.0857 19.6662 29.0533 19.5129C29.021 19.3596 28.9531 19.216 28.8551 19.0938L27.0001 16.7701ZM24.9876 15.9576C25.0088 16.3189 25.0088 16.6812 24.9876 17.0426C24.9727 17.29 25.0502 17.5341 25.2051 17.7276L26.9788 19.9438C26.7753 20.5906 26.5147 21.2181 26.2001 21.8188L23.3751 22.1388C23.129 22.1661 22.9019 22.2837 22.7376 22.4688C22.4969 22.7394 22.2407 22.9957 21.9701 23.2363C21.7849 23.4006 21.6674 23.6278 21.6401 23.8738L21.3263 26.6963C20.7257 27.0111 20.0982 27.2717 19.4513 27.4751L17.2338 25.7013C17.0564 25.5595 16.8359 25.4824 16.6088 25.4826H16.5488C16.1875 25.5038 15.8252 25.5038 15.4638 25.4826C15.2164 25.4677 14.9723 25.5452 14.7788 25.7001L12.5563 27.4751C11.9095 27.2715 11.282 27.0109 10.6813 26.6963L10.3613 23.8751C10.334 23.629 10.2164 23.4019 10.0313 23.2376C9.76069 22.9969 9.50442 22.7407 9.26381 22.4701C9.09947 22.2849 8.87233 22.1674 8.62631 22.1401L5.80381 21.8251C5.48905 21.2244 5.22843 20.5969 5.02506 19.9501L6.79881 17.7326C6.95369 17.5391 7.0312 17.295 7.01631 17.0476C6.99506 16.6862 6.99506 16.3239 7.01631 15.9626C7.0312 15.7152 6.95369 15.471 6.79881 15.2776L5.02506 13.0563C5.22859 12.4095 5.4892 11.782 5.80381 11.1813L8.62506 10.8613C8.87108 10.834 9.09822 10.7164 9.26256 10.5313C9.50317 10.2607 9.75944 10.0044 10.0301 9.76381C10.2159 9.59937 10.334 9.3717 10.3613 9.12506L10.6751 6.30381C11.2757 5.98905 11.9032 5.72843 12.5501 5.52506L14.7676 7.29881C14.961 7.45369 15.2052 7.5312 15.4526 7.51631C15.8139 7.49506 16.1762 7.49506 16.5376 7.51631C16.785 7.5312 17.0291 7.45369 17.2226 7.29881L19.4438 5.52506C20.0906 5.72859 20.7181 5.9892 21.3188 6.30381L21.6388 9.12506C21.6661 9.37108 21.7837 9.59822 21.9688 9.76256C22.2394 10.0032 22.4957 10.2594 22.7363 10.5301C22.9006 10.7152 23.1278 10.8327 23.3738 10.8601L26.1963 11.1738C26.5111 11.7744 26.7717 12.4019 26.9751 13.0488L25.2013 15.2663C25.0449 15.4614 24.9673 15.7081 24.9838 15.9576H24.9876Z" fill="black"/>
</svg>
