<svg width="33" height="32" viewBox="0 0 33 32" fill="none" xmlns="http://www.w3.org/2000/svg">
<path d="M26.7498 5.00024H6.58335C6.09712 5.00024 5.63081 5.1934 5.287 5.53721C4.94318 5.88102 4.75003 6.34733 4.75003 6.83356V25.1667C4.74796 25.5162 4.84675 25.8588 5.03454 26.1535C5.22233 26.4482 5.49116 26.6824 5.80877 26.8282C6.05148 26.9409 6.31576 26.9995 6.58335 27C7.01372 26.999 7.42982 26.8456 7.75782 26.5669C7.76328 26.5633 7.76829 26.5591 7.77271 26.5543L11.4531 23.3334H26.7498C27.2361 23.3334 27.7024 23.1403 28.0462 22.7964C28.39 22.4526 28.5831 21.9863 28.5831 21.5001V6.83356C28.5831 6.34733 28.39 5.88102 28.0462 5.53721C27.7024 5.1934 27.2361 5.00024 26.7498 5.00024ZM26.7498 21.5001H11.4531C11.0214 21.4999 10.6034 21.6521 10.2729 21.9298L10.2591 21.9424L6.58335 25.1667V6.83356H26.7498V21.5001ZM12.0833 12.3335C12.0833 12.0904 12.1799 11.8572 12.3518 11.6853C12.5237 11.5134 12.7568 11.4169 13 11.4169H20.3332C20.5763 11.4169 20.8095 11.5134 20.9814 11.6853C21.1533 11.8572 21.2499 12.0904 21.2499 12.3335C21.2499 12.5766 21.1533 12.8098 20.9814 12.9817C20.8095 13.1536 20.5763 13.2502 20.3332 13.2502H13C12.7568 13.2502 12.5237 13.1536 12.3518 12.9817C12.1799 12.8098 12.0833 12.5766 12.0833 12.3335ZM12.0833 16.0001C12.0833 15.757 12.1799 15.5239 12.3518 15.352C12.5237 15.1801 12.7568 15.0835 13 15.0835H20.3332C20.5763 15.0835 20.8095 15.1801 20.9814 15.352C21.1533 15.5239 21.2499 15.757 21.2499 16.0001C21.2499 16.2433 21.1533 16.4764 20.9814 16.6483C20.8095 16.8202 20.5763 16.9168 20.3332 16.9168H13C12.7568 16.9168 12.5237 16.8202 12.3518 16.6483C12.1799 16.4764 12.0833 16.2433 12.0833 16.0001Z" fill="black"/>
</svg>
