<svg width="33" height="32" viewBox="0 0 33 32" fill="none" xmlns="http://www.w3.org/2000/svg">
<path d="M26.9476 13.9703L19.4476 6.47033C19.3427 6.36538 19.2091 6.29387 19.0636 6.26486C18.9182 6.23584 18.7674 6.25061 18.6303 6.30731C18.4932 6.36401 18.376 6.46008 18.2935 6.58339C18.2111 6.70669 18.167 6.85168 18.1669 7.00002V10.7828C15.7351 10.991 13.0491 12.1816 10.8394 14.0556C8.17881 16.3131 6.52225 19.2222 6.17444 22.2466C6.14725 22.4817 6.19493 22.7194 6.31068 22.9259C6.42642 23.1324 6.60434 23.2971 6.81911 23.3966C7.03389 23.496 7.27457 23.5253 7.50691 23.48C7.73924 23.4348 7.9514 23.3175 8.11318 23.1447C9.14443 22.0469 12.8138 18.5753 18.1669 18.2697V22C18.167 22.1484 18.2111 22.2934 18.2935 22.4167C18.376 22.54 18.4932 22.636 18.6303 22.6927C18.7674 22.7494 18.9182 22.7642 19.0636 22.7352C19.2091 22.7062 19.3427 22.6347 19.4476 22.5297L26.9476 15.0297C27.0878 14.8891 27.1666 14.6986 27.1666 14.5C27.1666 14.3014 27.0878 14.1109 26.9476 13.9703ZM19.6669 20.1897V17.5C19.6669 17.3011 19.5879 17.1103 19.4473 16.9697C19.3066 16.829 19.1158 16.75 18.9169 16.75C16.2844 16.75 13.7204 17.4372 11.296 18.7938C10.0613 19.4877 8.91082 20.322 7.86756 21.28C8.41131 19.045 9.78194 16.9197 11.8097 15.1994C13.9866 13.3535 16.6435 12.25 18.9169 12.25C19.1158 12.25 19.3066 12.171 19.4473 12.0303C19.5879 11.8897 19.6669 11.6989 19.6669 11.5V8.81127L25.3566 14.5L19.6669 20.1897Z" fill="black"/>
</svg>
