<svg width="20" height="19" viewBox="0 0 20 19" fill="none" xmlns="http://www.w3.org/2000/svg">
<path d="M18.4615 0.269287H1.53849C1.13046 0.269287 0.739148 0.431374 0.450631 0.719891C0.162114 1.00841 2.67878e-05 1.39972 2.67878e-05 1.80775V17.1923C-0.00171153 17.4856 0.0811865 17.7731 0.238777 18.0204C0.396367 18.2677 0.621958 18.4643 0.888487 18.5866C1.09216 18.6811 1.31393 18.7303 1.53849 18.7308C1.89964 18.7299 2.24882 18.6012 2.52406 18.3673C2.52865 18.3643 2.53285 18.3608 2.53656 18.3568L5.62502 15.6539H18.4615C18.8696 15.6539 19.2609 15.4918 19.5494 15.2033C19.8379 14.9148 20 14.5234 20 14.1154V1.80775C20 1.39972 19.8379 1.00841 19.5494 0.719891C19.2609 0.431374 18.8696 0.269287 18.4615 0.269287ZM18.4615 14.1154H5.62502C5.26273 14.1153 4.91201 14.2429 4.63464 14.476L4.6231 14.4866L1.53849 17.1923V1.80775H18.4615V14.1154ZM6.15387 6.42312C6.15387 6.21911 6.23491 6.02346 6.37917 5.8792C6.52343 5.73494 6.71908 5.65389 6.9231 5.65389H13.0769C13.2809 5.65389 13.4766 5.73494 13.6209 5.8792C13.7651 6.02346 13.8462 6.21911 13.8462 6.42312C13.8462 6.62714 13.7651 6.82279 13.6209 6.96705C13.4766 7.11131 13.2809 7.19235 13.0769 7.19235H6.9231C6.71908 7.19235 6.52343 7.11131 6.37917 6.96705C6.23491 6.82279 6.15387 6.62714 6.15387 6.42312ZM6.15387 9.50004C6.15387 9.29603 6.23491 9.10037 6.37917 8.95612C6.52343 8.81186 6.71908 8.73081 6.9231 8.73081H13.0769C13.2809 8.73081 13.4766 8.81186 13.6209 8.95612C13.7651 9.10037 13.8462 9.29603 13.8462 9.50004C13.8462 9.70406 13.7651 9.89971 13.6209 10.044C13.4766 10.1882 13.2809 10.2693 13.0769 10.2693H6.9231C6.71908 10.2693 6.52343 10.1882 6.37917 10.044C6.23491 9.89971 6.15387 9.70406 6.15387 9.50004Z" fill="white"/>
</svg>
