<svg width="32" height="33" viewBox="0 0 32 33" fill="none" xmlns="http://www.w3.org/2000/svg">
<path d="M29 27.5H26V5.5C26 4.96957 25.7893 4.46086 25.4142 4.08579C25.0391 3.71071 24.5304 3.5 24 3.5H8C7.46957 3.5 6.96086 3.71071 6.58579 4.08579C6.21071 4.46086 6 4.96957 6 5.5V27.5H3C2.73478 27.5 2.48043 27.6054 2.29289 27.7929C2.10536 27.9804 2 28.2348 2 28.5C2 28.7652 2.10536 29.0196 2.29289 29.2071C2.48043 29.3946 2.73478 29.5 3 29.5H29C29.2652 29.5 29.5196 29.3946 29.7071 29.2071C29.8946 29.0196 30 28.7652 30 28.5C30 28.2348 29.8946 27.9804 29.7071 27.7929C29.5196 27.6054 29.2652 27.5 29 27.5ZM24 5.5V27.5H22V5.5H24ZM8 5.5H20V27.5H8V5.5ZM18 17C18 17.2967 17.912 17.5867 17.7472 17.8334C17.5824 18.08 17.3481 18.2723 17.074 18.3858C16.7999 18.4993 16.4983 18.5291 16.2074 18.4712C15.9164 18.4133 15.6491 18.2704 15.4393 18.0607C15.2296 17.8509 15.0867 17.5836 15.0288 17.2926C14.9709 17.0017 15.0006 16.7001 15.1142 16.426C15.2277 16.1519 15.42 15.9176 15.6666 15.7528C15.9133 15.588 16.2033 15.5 16.5 15.5C16.8978 15.5 17.2794 15.658 17.5607 15.9393C17.842 16.2206 18 16.6022 18 17Z" fill="black"/>
</svg>
