<svg width="118" height="89" viewBox="0 0 118 89" fill="none" xmlns="http://www.w3.org/2000/svg">
<path d="M76.5598 41.4138V11.1169L80.8879 13.5902V38.9406L76.5598 41.4138Z" fill="#292E32" stroke="#292E32" stroke-width="0.247321"/>
<path d="M53.4353 9.50939L49.1071 6.91252L59 1.10046L71.6134 8.02546V24.1014H66.7906V10.6223L59 6.29421L53.4353 9.50939Z" fill="#00DDB2" stroke="#00DCB2" stroke-width="0.247321"/>
<path d="M46.8813 33.3759V28.4294L71.6134 28.8004L71.3661 44.3817L59.4946 51.554L46.8813 44.3817V37.0857H51.5804V41.6611L59.4946 46.1129L67.0379 41.6611V33.3759H46.8813Z" fill="#00DDB2" stroke="#00DCB2" stroke-width="0.247321"/>
<path d="M37.3594 38.817L41.9348 41.5375V16.0634L44.408 14.7031L46.7576 16.0634V28.1822H51.704V18.7839L59.1237 23.3594L62.4625 21.6281V16.0634L59.1237 18.1656L43.9134 9.75671L37.3594 13.5902V38.817Z" fill="#292E32" stroke="#292E32" stroke-width="0.247321"/>
<path d="M9.57495 88.7229C8.09312 88.7229 6.76727 88.4694 5.5974 87.9625C4.44704 87.4556 3.53064 86.7146 2.84822 85.7397C2.18529 84.7649 1.84408 83.5852 1.82458 82.2009H6.00686C6.02636 82.8053 6.18234 83.3513 6.4748 83.8387C6.76727 84.3262 7.16698 84.7161 7.67392 85.0086C8.20036 85.2816 8.82429 85.418 9.54571 85.418C10.1696 85.418 10.7058 85.3205 11.1543 85.1256C11.6222 84.9111 11.9829 84.6186 12.2364 84.2482C12.4899 83.8777 12.6166 83.439 12.6166 82.9321C12.6166 82.3471 12.4704 81.8597 12.1779 81.4697C11.9049 81.0798 11.515 80.7483 11.008 80.4753C10.5206 80.2024 9.94541 79.9587 9.28249 79.7442C8.63906 79.5102 7.95664 79.2665 7.23522 79.013C5.6169 78.4866 4.37879 77.7847 3.52089 76.9073C2.68249 76.0299 2.26328 74.8697 2.26328 73.4269C2.26328 72.1985 2.55575 71.1457 3.14068 70.2683C3.74512 69.3909 4.57377 68.7182 5.62665 68.2502C6.67953 67.7823 7.87865 67.5483 9.22399 67.5483C10.6083 67.5483 11.8172 67.792 12.8506 68.2795C13.9035 68.7474 14.7321 69.4299 15.3365 70.3268C15.9605 71.2236 16.2822 72.2765 16.3017 73.4854H12.0902C12.0707 73.0369 11.9342 72.6177 11.6807 72.2278C11.4467 71.8183 11.1153 71.4966 10.6863 71.2626C10.2574 71.0092 9.75043 70.8824 9.1655 70.8824C8.65856 70.8629 8.19061 70.9409 7.76166 71.1164C7.3522 71.2919 7.02074 71.5551 6.76727 71.9061C6.5333 72.2375 6.41631 72.6567 6.41631 73.1637C6.41631 73.6511 6.5333 74.0606 6.76727 74.392C7.02074 74.7235 7.36195 75.016 7.79091 75.2694C8.21986 75.5034 8.7268 75.7276 9.31173 75.9421C9.89667 76.1371 10.5303 76.3418 11.2128 76.5563C12.2267 76.9073 13.1625 77.3265 14.0204 77.8139C14.8783 78.2818 15.5608 78.896 16.0677 79.6564C16.5747 80.4169 16.8281 81.421 16.8281 82.6688C16.8281 83.7412 16.5454 84.7356 15.98 85.652C15.4145 86.5684 14.5956 87.3093 13.5233 87.8748C12.4704 88.4402 11.1543 88.7229 9.57495 88.7229ZM20.1773 88.3719V67.8993H33.6308V71.0872H24.1256V76.4393H32.7534V79.5102H24.1256V85.1841H33.6308V88.3719H20.1773ZM37.2284 88.3719V67.8993H41.1767L50.5941 82.0254V67.8993H54.5424V88.3719H50.5941L41.1767 74.2751V88.3719H37.2284ZM63.3022 88.3719V71.0872H57.3067V67.8993H73.1876V71.0872H67.2213V88.3719H63.3022ZM75.9859 88.3719V67.8993H79.9342V88.3719H75.9859ZM83.9545 88.3719V67.8993H97.408V71.0872H87.9028V76.4393H96.5306V79.5102H87.9028V85.1841H97.408V88.3719H83.9545ZM101.006 88.3719V67.8993H108.639C110.296 67.8993 111.661 68.182 112.733 68.7474C113.806 69.3129 114.605 70.0733 115.132 71.0287C115.658 71.9646 115.921 73.0077 115.921 74.1581C115.921 75.2499 115.668 76.2736 115.161 77.229C114.654 78.1649 113.855 78.9253 112.763 79.5102C111.69 80.0756 110.306 80.3584 108.61 80.3584H104.954V88.3719H101.006ZM111.622 88.3719L107.411 79.364H111.681L116.126 88.3719H111.622ZM104.954 77.4922H108.405C109.594 77.4922 110.472 77.1997 111.037 76.6148C111.603 76.0299 111.885 75.2597 111.885 74.3043C111.885 73.3489 111.603 72.5982 111.037 72.0523C110.491 71.4869 109.614 71.2042 108.405 71.2042H104.954V77.4922Z" fill="#292E32"/>
</svg>
